<svg xmlns="http://www.w3.org/2000/svg" id="Layer_1" viewBox="0.16 -0.04 169.65 4.38"><defs><style>.cls-1{fill:#4d5d4d;stroke:#4d5e4c;stroke-miterlimit:10;}</style></defs><path class="cls-1" d="M126.61,1.82c1.06,.01,2.12,.03,3.19,.04,.39,0,.78,0,1.17,0s.78-.02,1.17,0c.45,.02,.89,.06,1.34,.09,.39-.1,.78,0,1.16,0,.33,0,.66,.05,1,.06,1.45,.05,2.91,.09,4.36,.13,.61,.02,1.23,0,1.83,.18,.11,.03,.22,.04,.33,.04,.89,.04,1.79,.08,2.68,.12,.56,.03,1.12,.03,1.67,.13,.16,.03,.33,.05,.5,.05,.9,.01,1.79,.02,2.69,.02,.17,0,.34,0,.5-.04,.77-.18,1.56-.16,2.33-.23,.45-.04,.9-.04,1.33-.15,.44-.11,.88-.13,1.33-.16,.5-.03,1.01-.04,1.5-.14,.5-.1,.99-.14,1.5-.15,.5,0,1.01,0,1.51,0,0,0,0,0,0-.01,.67,0,1.34,.01,2.01,.03,.22,0,.45,.02,.67,.06,.77,.13,1.56,.13,2.34,.18,.61,.04,1.23,.05,1.84,.08,.39,.02,.78,.05,1.16,.17,.16,.05,.33,.07,.49,.09,.27,.03,.55,.07,.81,.15,.1,0,.19-.02,.29-.02-.08-.31-.17-.64-.25-.96-.39-.09-.78-.15-1.18-.18-.39-.02-.78-.06-1.17-.14-.39-.07-.77-.12-1.16-.13-.62-.02-1.23-.05-1.84-.07-.67-.03-1.34-.03-2-.17-.16-.03-.33-.05-.5-.05-.62-.01-1.23,0-1.85-.02-.5-.02-.99,.18-1.5,.06-.05-.01-.11,0-.17,0-.72,.15-1.44,.16-2.17,.21-.67,.05-1.34,.03-2,.23-.16,.05-.33,.03-.5,.05-.89,.08-1.79,.05-2.67,.27-.05,.01-.11,.01-.17,.02-1.45,.04-2.91,.13-4.35-.1-.22-.04-.45-.04-.67-.05-.61-.03-1.23-.06-1.84-.06-.67,0-1.34-.12-2.01-.12-.6-.18-1.22-.17-1.83-.2-.95-.05-1.9-.08-2.85-.12-.28-.01-.56-.01-.83-.07-.44-.1-.89-.11-1.33-.12-.62-.02-1.23-.02-1.85-.03-3.02-.03-6.04-.05-9.06-.08-.56,0-1.12-.02-1.67-.11-.17-.03-.33,.01-.5,.03-.17,.02-.33,0-.5-.04-.27-.08-.55-.1-.83-.07-.16,.02-.33,.07-.5,.04-.5-.1-1-.08-1.5-.02-.5,.05-1,.07-1.49-.04-.11-.03-.22-.04-.33-.04-.84,.02-1.68,.04-2.52,.07-.33,.09-.66,.02-1-.01-.5-.04-1-.09-1.49,.11-.1,.04-.22,.05-.33,.06-1.11,.15-2.23,.12-3.34,.23-.05,0-.11-.02-.16-.03-.67-.11-1.34-.05-2,.04-.22,.03-.44,.09-.66,.1-.61,.04-1.23,.08-1.84,.11-.62,.02-1.2,.27-1.82,.29-.39,.01-.78,.08-1.16,.19-.22,.06-.44,.1-.66,.13-.33,.04-.67,.05-1,.1-.33,.05-.65,.16-.98,.22-.22,.04-.44,.05-.67,.07-.39,.02-.78,.03-1.17,.05-.28,.01-.57,0-.83,.07-.55,.15-1.11,.15-1.66,.18-1.06,.07-2.12,.06-3.17,.25-.16,.03-.33,.04-.5,.04-1.57,.05-3.13,.13-4.7,.12-1.45,0-2.91,0-4.36-.02-.95-.02-1.9,0-2.85-.02-1.17-.02-2.35-.04-3.52-.09-.95-.03-1.9-.01-2.84-.17-.44-.07-.89-.05-1.34-.06-1.51-.04-3.02-.07-4.53-.11-.28,0-.56,0-.84-.06-.44-.08-.89-.09-1.33-.12-1.28-.07-2.57-.11-3.86-.14-.5-.01-1.01,0-1.5-.14-.16-.04-.33-.04-.5-.05-.56-.02-1.12-.05-1.68-.06-3.86-.05-7.72,0-11.58,.05-.5,0-1,.02-1.5,.12-.44,.08-.89,.08-1.34,.08-2.4,.02-4.81,.07-7.21,.07-2.18,0-4.36,.07-6.54,.03-.78-.02-1.56,0-2.35,0-1.12,0-2.24-.06-3.35-.1-.17,0-.34-.02-.5-.07-.44-.12-.88-.15-1.33-.16-.61-.02-1.23-.06-1.84-.07-.67,0-1.34-.04-2-.19-.27-.06-.55-.05-.83-.05-.78-.02-1.57-.06-2.34-.2-.61-.11-1.21-.19-1.83-.22-.39-.02-.78-.06-1.16-.16-.44-.12-.88-.15-1.33-.17-.73-.02-1.45-.05-2.18-.07-.61-.02-1.23,.05-1.83-.15-.84-.02-1.67-.12-2.51,.07-.16,.04-.33,0-.5,0-.04,0-.09-.01-.13-.02-.13,.1-.27,.19-.41,.28-.02,.06-.02,.13-.04,.19-.05,.11-.09,.21-.14,.32,.2,.08,.4,.16,.59,.26,.58-.12,1.16-.15,1.75-.14,.67,0,1.34-.02,2,.15,.21,.06,.45,.03,.67,.04,.61,.03,1.23,.07,1.84,.11,.22,.01,.45,.02,.66,.08,.55,.15,1.1,.18,1.66,.21,.73,.04,1.45,.06,2.17,.18,.44,.08,.89,.12,1.33,.13,.56,.01,1.12,.03,1.68,.06,.22,.01,.45,.02,.66,.08,.44,.13,.88,.16,1.33,.17,1.12,.04,2.24,.07,3.36,.1,.56,.02,1.12,0,1.66,.19,.16,.05,.33,.05,.5,.06,.56,.02,1.12,.06,1.68,.05,.62,0,1.23,.03,1.84,.12,.61,.1,1.22,.12,1.84,.13,3.41,.07,6.82,.03,10.24-.03,.5,0,1.01,0,1.5-.14,.16-.04,.33-.04,.5-.04,2.29,0,4.58-.12,6.88-.17,.17,0,.34,0,.5-.04,.66-.14,1.34-.12,2-.13,1.17-.02,2.35-.01,3.52,0,.95,0,1.9-.05,2.85,.11,.11,.02,.22,0,.33-.02,.17-.02,.33-.04,.5,0,.33,.1,.66,.11,1,.12,1.34,.04,2.68,.1,4.02,.14,.62,.02,1.23,.03,1.83,.17,.21,.05,.44,.04,.67,.05,1.23,.03,2.46,.05,3.69,.08,.62,.01,1.23,.02,1.84,.13,.44,.08,.89,.1,1.34,.11,1.4,.03,2.8,.08,4.19,.09,1.45,0,2.91,.04,4.36,.04,1.17,0,2.35,.01,3.52,0,2.01-.03,4.03-.02,6.04-.13,.22-.01,.45-.01,.67-.05,.72-.14,1.44-.15,2.17-.18,.78-.03,1.56-.07,2.35-.11,.17,0,.34-.02,.5-.06,.49-.14,1-.14,1.5-.18,.67-.05,1.34-.05,1.99-.25,.26-.08,.55-.11,.83-.11,.46,0,.87-.19,1.32-.25,.5-.06,1-.1,1.5-.15,.11-.01,.22-.04,.33-.08,.32-.11,.66-.14,.99-.15,.67-.02,1.34-.03,2.01-.04,.45,0,.9,0,1.34,0,.5-.01,1.01-.05,1.51-.05,.45,0,.89-.13,1.33-.1,.17,.01,.33-.04,.5-.06,.17-.02,.33-.04,.5-.05,.17-.01,.34-.02,.5-.03,.17-.01,.33-.03,.5-.06,.27-.05,.54-.15,.82-.16,.28-.01,.55,.06,.83,.08,.17,.01,13.26,.13,13.42,.13"/></svg>